<?xml version="1.0" encoding="UTF-8"?>
<!DOCTYPE svg PUBLIC "-//W3C//DTD SVG 1.1//EN" "http://www.w3.org/Graphics/SVG/1.1/DTD/svg11.dtd">
<!-- Creator: CorelDRAW 2020 (64-Bit) -->
<svg xmlns="http://www.w3.org/2000/svg" xml:space="preserve" width="297mm" height="210mm" version="1.1" style="shape-rendering:geometricPrecision; text-rendering:geometricPrecision; image-rendering:optimizeQuality; fill-rule:evenodd; clip-rule:evenodd"
viewBox="0 0 29700 21000"
 xmlns:xlink="http://www.w3.org/1999/xlink"
 xmlns:xodm="http://www.corel.com/coreldraw/odm/2003">
 <defs>
  <style type="text/css">
   <![CDATA[
    .str0 {stroke:#2B2A29;stroke-width:20;stroke-miterlimit:22.9256}
    .fil3 {fill:#2C4C6B}
    .fil0 {fill:#ECF0F1}
    .fil2 {fill:#2C4C6B;fill-rule:nonzero}
    .fil1 {fill:#325D88;fill-rule:nonzero}
    .fil5 {fill:#D8D8D8;fill-rule:nonzero}
    .fil4 {fill:#F8FFFB;fill-rule:nonzero}
   ]]>
  </style>
 </defs>
 <g id="Ebene_x0020_1">
  <metadata id="CorelCorpID_0Corel-Layer"/>
  <rect class="fil0 str0" x="-269.36" y="-563.38" width="30592.49" height="22357.82"/>
  <circle class="fil1" cx="23330.81" cy="9726.19" r="4471.78"/>
 </g>
 <g id="Ebene_x0020_6">
  <metadata id="CorelCorpID_1Corel-Layer"/>
  <path class="fil2" d="M25386.28 13698.61c816.03,-422.65 1805.8,-1321.1 2137.4,-2414.39l-1670.94 -1459.33 -2431.59 116.66 -246.67 478.34 1260.91 1139.17 -294.65 1062.24 1245.54 1077.31z"/>
  <path class="fil2" d="M27804.93 9706.25l-2426.68 -2562.71 -1845.16 283.73 -565.11 3104.34 1463.82 1623.55c1217.43,637.53 2691.5,956.84 3251.17,-1407.26 70.2,-296.53 121.96,-648.04 121.96,-1041.65z"/>
  <path class="fil2" d="M24677.27 8936.63l-1717.48 -1717.49c0,0 -887.84,-164.03 -1325.44,-110.91 -437.6,53.11 -320.99,2321.41 -320.99,2321.41l1455.43 1455.43c939.55,-252.02 1675.46,-1001.26 1908.48,-1948.44l0 0z"/>
  <path class="fil2" d="M24980.37 11836.15l-2328.85 -2352.76 -1794.96 3198.5 1209.83 1334.82c35.71,34.79 1278.04,8.43 1307.74,-23.16 882.11,184.05 141.12,91.98 511.6,64.09 539.44,-40.61 1044.08,-159.32 1413.51,-315.1 566.29,-238.77 321.05,-1049.19 -318.87,-1906.39z"/>
  <path class="fil3" d="M23274.19 13795.68c145.87,0 264.11,89.96 264.11,200.94 0,110.97 -113.71,201.97 -264.11,200.93 -40.1,-0.28 -176.25,-1.87 -342.12,-17.11 -125.32,-11.52 -268.28,-29.73 -399.06,-53.43 -73.73,-13.36 -143.23,-29.08 -205.58,-42.04 -113.91,-23.7 -179.75,-45.64 -231.45,-59.67 -34.26,-9.29 -1.33,-31.55 116.7,-34.36 557.08,-13.28 915.65,-195.26 1061.51,-195.26z"/>
  <path class="fil3" d="M24157.22 13941.21c-54.53,23.55 -893.41,13.99 -864.01,177.85 5.66,31.55 -82.15,66.53 -31.93,77.78 17.58,3.93 151.71,-0.22 173.25,-0.05 145.9,1.16 384.83,-21.75 544.32,-45.43 91.27,-13.55 159.72,-25.64 176.62,-29.27 19.97,-4.29 138.49,-25.31 285.22,-62.93 78.32,-20.09 165.37,-45.99 251.09,-72.06 104.45,-31.78 205.7,-70.47 289.17,-103.44 58.11,-22.95 106.72,-40.44 142.31,-59.42 1.45,-0.77 3.48,-1.5 5.32,-2.33 10.45,-4.72 26.76,-12.47 44.66,-19.92 43.39,-18.06 101.16,-47.34 122.43,-57.7 4.27,-2.08 -2.7,-4.41 -3.24,-6.4 -31.69,-116.31 -1080.67,179.78 -1135.21,203.32z"/>
 </g>
 <g id="Ebene_x0020_2">
  <metadata id="CorelCorpID_2Corel-Layer"/>
  <g id="_2325989004832">
   <polygon class="fil4" points="25598.15,9824.89 25598.15,10432.77 24656.77,10432.77 24656.77,12681.83 24048.89,12681.83 24048.89,10432.77 23174.48,10432.77 23174.48,9824.89 "/>
   <polygon class="fil5" points="25598.1,9824.84 25598.1,10432.72 24656.73,10432.72 24656.73,12681.89 24386.32,12681.89 24386.32,9824.84 "/>
  </g>
 </g>
 <g id="Ebene_x0020_3">
  <metadata id="CorelCorpID_3Corel-Layer"/>
  <g id="_2325989003920">
   <path class="fil4" d="M24982.36 8585.23c327.06,-129.9 561.78,-477.18 561.78,-884.04 0,-517.61 -379.64,-938.79 -846.32,-938.79l-1221.7 0 0 2886.36 550.48 0 0 -1008.9 333.14 0 584.18 1008.9 654.23 0 -615.79 -1063.53zm-284.54 -555.92l-671.22 0 0 -656.35 671.22 0c163.05,0 295.83,147.27 295.83,328.23 0,180.95 -132.78,328.12 -295.83,328.12z"/>
   <path class="fil5" d="M24982.36 8585.18c327.06,-129.9 561.78,-477.08 561.78,-884.05 0,-517.6 -379.64,-938.77 -846.32,-938.77l-331.81 -0.01 0 610.56 331.81 0c163.05,0 295.83,147.37 295.83,328.22 0,181.06 -132.78,328.23 -295.83,328.23l-331.81 0 0 621.4 577.91 998.05 654.23 0 -615.79 -1063.63z"/>
  </g>
 </g>
 <g id="Ebene_x0020_4">
  <metadata id="CorelCorpID_4Corel-Layer"/>
  <g id="_2325988999360">
   <path class="fil4" d="M22629.27 9816.45l-867.39 0 -905.32 2865.44 637.54 -0.01 214.86 -680.2 973.24 0 214.86 680.21 637.54 -0.01 -905.33 -2865.43zm-728.3 1577.35l294.61 -932.37 294.61 932.37 -589.22 0z"/>
   <polygon class="fil5" points="22629.27,9816.45 22195.58,9816.45 22195.58,10461.43 22490.19,11393.8 22195.58,11393.8 22195.58,12001.68 22682.2,12001.68 22897.06,12681.89 23534.6,12681.88 "/>
  </g>
 </g>
 <g id="Ebene_x0020_5">
  <metadata id="CorelCorpID_5Corel-Layer"/>
  <g id="_2325989000560">
   <path class="fil4" d="M23330.77 9394.97l-309.36 -309.36c92.99,-161.28 146.23,-348.23 146.23,-547.39l0 -676.59c0,-606.14 -493.12,-1099.27 -1099.27,-1099.27l-112.54 0c-606.13,0 -1099.27,493.12 -1099.27,1099.26l0 676.6c0,606.13 493.12,1099.27 1099.27,1099.27l112.55 0c186.48,0 362.22,-46.73 516.24,-129.01l316.31 316.33 429.84 -429.84zm-1262.39 -365.36l-112.55 0c-270.96,0 -491.39,-220.43 -491.39,-491.39l0 -676.59c0,-270.96 220.43,-491.39 491.39,-491.39l112.55 0c270.96,0 491.39,220.43 491.39,491.39l0 676.59c0,26.99 -2.27,53.46 -6.49,79.26l-291.63 -291.63 -429.84 429.83 272.47 272.48c-11.87,0.86 -23.81,1.45 -35.9,1.45z"/>
   <path class="fil5" d="M23021.41 9085.61c92.96,-161.3 146.2,-348.27 146.2,-547.41l0 -676.53c0,-605.05 -491.23,-1097.33 -1095.66,-1099.32l0 607.99c269.26,1.78 487.78,221.45 487.78,491.34l0 676.53c0,27.04 -2.2,53.45 -6.49,79.23l-291.58 -291.57 -189.71 189.7 0 480.34 32.29 32.27c-10.7,0.74 -21.39,1.37 -32.29,1.47l0 607.88c185.09,-0.62 359.6,-47.27 512.62,-129.01l316.42 316.31 429.82 -429.82 -309.4 -309.4z"/>
  </g>
 </g>
</svg>
