<?xml version="1.0" encoding="UTF-8"?>
<!DOCTYPE svg PUBLIC "-//W3C//DTD SVG 1.1//EN" "http://www.w3.org/Graphics/SVG/1.1/DTD/svg11.dtd">
<!-- Creator: CorelDRAW 2020 (64-Bit) -->
<svg xmlns="http://www.w3.org/2000/svg" xml:space="preserve" width="210mm" height="297mm" version="1.1" style="shape-rendering:geometricPrecision; text-rendering:geometricPrecision; image-rendering:optimizeQuality; fill-rule:evenodd; clip-rule:evenodd"
viewBox="0 0 21000 29700"
 xmlns:xlink="http://www.w3.org/1999/xlink"
 xmlns:xodm="http://www.corel.com/coreldraw/odm/2003">
 <defs>
  <style type="text/css">
   <![CDATA[
    .fil2 {fill:#2C4C6B}
    .fil1 {fill:#2C4C6B;fill-rule:nonzero}
    .fil0 {fill:#325D88;fill-rule:nonzero}
    .fil4 {fill:#D8D8D8;fill-rule:nonzero}
    .fil3 {fill:#F8FFFB;fill-rule:nonzero}
   ]]>
  </style>
 </defs>
 <g id="Ebene_x0020_1">
  <metadata id="CorelCorpID_0Corel-Layer"/>
  <circle class="fil0" cx="11588.18" cy="14208.32" r="6773.33"/>
 </g>
 <g id="Ebene_x0020_6">
  <metadata id="CorelCorpID_1Corel-Layer"/>
  <path class="fil1" d="M14701.57 20225.28c1236.03,-640.18 2735.22,-2001.06 3237.49,-3657.04l-2530.95 -2210.42 -3683.09 176.7 -373.62 724.54 1909.88 1725.48 -446.3 1608.95 1886.59 1631.79z"/>
  <path class="fil1" d="M18365.06 14178.12l-3675.65 -3881.7 -2794.83 429.77 -855.96 4702.09 2217.22 2459.16c1844.02,965.65 4076.76,1449.3 4924.49,-2131.56 106.33,-449.15 184.73,-981.57 184.73,-1577.76z"/>
  <path class="fil1" d="M13627.65 13012.38l-2601.44 -2601.44c0,0 -1344.79,-248.46 -2007.62,-168 -662.83,80.45 -486.2,3516.2 -486.2,3516.2l2204.51 2204.51c1423.13,-381.73 2537.8,-1516.58 2890.74,-2951.27l0.01 0z"/>
  <path class="fil1" d="M14086.75 17404.24l-3527.47 -3563.68 -2718.8 4844.7 1832.51 2021.83c54.09,52.7 1935.82,12.77 1980.81,-35.08 1336.12,278.79 213.75,139.33 774.91,97.08 817.09,-61.51 1581.45,-241.32 2141.02,-477.27 857.76,-361.67 486.3,-1589.2 -482.98,-2887.58z"/>
  <path class="fil2" d="M11502.43 20372.31c220.94,0 400.04,136.26 400.04,304.35 0,168.09 -172.23,305.92 -400.04,304.35 -60.74,-0.42 -266.96,-2.83 -518.2,-25.92 -189.83,-17.44 -406.36,-45.03 -604.45,-80.92 -111.69,-20.24 -216.95,-44.05 -311.39,-63.69 -172.54,-35.89 -272.27,-69.12 -350.58,-90.37 -51.89,-14.08 -2.02,-47.79 176.76,-52.05 843.81,-20.11 1386.92,-295.75 1607.86,-295.75z"/>
  <path class="fil2" d="M12839.94 20592.74c-82.6,35.66 -1353.24,21.18 -1308.7,269.38 8.57,47.79 -124.44,100.77 -48.37,117.81 26.63,5.96 229.79,-0.33 262.42,-0.07 221,1.76 582.89,-32.94 824.47,-68.81 138.25,-20.52 241.92,-38.84 267.52,-44.34 30.25,-6.5 209.78,-38.34 432.02,-95.32 118.63,-30.42 250.48,-69.65 380.33,-109.15 158.2,-48.13 311.56,-106.73 437.99,-156.67 88.02,-34.76 161.65,-61.25 215.56,-90 2.2,-1.17 5.27,-2.28 8.06,-3.54 15.83,-7.15 40.53,-18.89 67.64,-30.17 65.73,-27.35 153.23,-71.71 185.45,-87.39 6.47,-3.15 -4.09,-6.69 -4.91,-9.7 -48,-176.17 -1636.88,272.31 -1719.48,307.97z"/>
 </g>
 <g id="Ebene_x0020_2">
  <metadata id="CorelCorpID_2Corel-Layer"/>
  <g id="_2325989004832">
   <polygon class="fil3" points="15022.49,14357.82 15022.49,15278.56 13596.6,15278.56 13596.6,18685.18 12675.85,18685.18 12675.85,15278.57 11351.4,15278.56 11351.4,14357.82 "/>
   <polygon class="fil4" points="15022.41,14357.74 15022.41,15278.49 13596.53,15278.49 13596.53,18685.26 13186.95,18685.26 13186.95,14357.74 "/>
  </g>
 </g>
 <g id="Ebene_x0020_3">
  <metadata id="CorelCorpID_3Corel-Layer"/>
  <g id="_2325989003920">
   <path class="fil3" d="M14089.76 12480.13c495.4,-196.76 850.92,-722.78 850.92,-1339.05 0,-784.01 -575.04,-1421.96 -1281.91,-1421.96l-1850.49 0 0 4371.91 833.81 0.01 0 -1528.16 504.6 0 884.85 1528.16 990.95 0 -932.73 -1610.91zm-430.99 -842.05l-1016.68 0 0 -994.16 1016.68 0c246.98,0 448.1,223.07 448.1,497.16 0,274.09 -201.12,497 -448.1,497z"/>
   <path class="fil4" d="M14089.76 12480.05c495.4,-196.76 850.92,-722.62 850.92,-1339.05 0,-784.01 -575.04,-1421.95 -1281.91,-1421.95l-502.59 -0.01 0 924.8 502.59 0c246.98,0 448.1,223.23 448.1,497.16 0,274.25 -201.12,497.16 -448.1,497.16l-502.59 0 0 941.23 875.36 1511.72 990.95 0 -932.73 -1611.06z"/>
  </g>
 </g>
 <g id="Ebene_x0020_4">
  <metadata id="CorelCorpID_4Corel-Layer"/>
  <g id="_2325988999360">
   <path class="fil3" d="M10525.58 14345.03l-1313.82 0 -1371.28 4340.23 965.68 -0.01 325.44 -1030.29 1474.15 0.01 325.44 1030.29 965.68 -0.01 -1371.29 -4340.22zm-1103.15 2389.19l446.24 -1412.24 446.25 1412.24 -892.49 0z"/>
   <polygon class="fil4" points="10525.58,14345.03 9868.67,14345.03 9868.67,15321.98 10314.92,16734.22 9868.67,16734.22 9868.67,17654.97 10605.75,17654.97 10931.19,18685.26 11896.87,18685.25 "/>
  </g>
 </g>
 <g id="Ebene_x0020_5">
  <metadata id="CorelCorpID_5Corel-Layer"/>
  <g id="_2325989000560">
   <path class="fil3" d="M11588.12 13706.63l-468.58 -468.59c140.86,-244.28 221.5,-527.45 221.5,-829.12l0 -1024.82c0,-918.11 -746.93,-1665.05 -1665.05,-1665.05l-170.46 0c-918.1,0 -1665.05,746.93 -1665.05,1665.04l0 1024.83c0,918.09 746.93,1665.04 1665.05,1665.04l170.48 0.01c282.45,0 548.64,-70.79 781.93,-195.41l479.12 479.13 651.06 -651.06zm-1912.11 -553.41l-170.48 0c-410.42,0 -744.3,-333.88 -744.3,-744.3l0 -1024.82c0,-410.42 333.88,-744.3 744.3,-744.3l170.48 0c410.42,0 744.3,333.88 744.3,744.3l0 1024.82c0,40.88 -3.44,80.97 -9.83,120.06l-441.73 -441.73 -651.07 651.06 412.7 412.71c-17.97,1.3 -36.06,2.2 -54.37,2.2z"/>
   <path class="fil4" d="M11119.54 13238.04c140.81,-244.31 221.45,-527.52 221.45,-829.15l0 -1024.73c0,-916.46 -744.06,-1662.11 -1659.57,-1665.12l0 920.91c407.83,2.7 738.83,335.43 738.83,744.22l0 1024.73c0,40.96 -3.34,80.96 -9.84,120.02l-441.65 -441.64 -287.34 287.34 0 727.55 48.9 48.89c-16.2,1.11 -32.39,2.07 -48.9,2.22l0 920.75c280.35,-0.95 544.68,-71.6 776.45,-195.42l479.27 479.11 651.04 -651.04 -468.64 -468.64z"/>
  </g>
 </g>
</svg>
